<svg xmlns="http://www.w3.org/2000/svg" width="72" height="72" fill="none" viewBox="0 0 72 72"><path fill="#932279" fill-rule="evenodd" d="M30.8179 33.5986L33.1974 35.9641L30.8179 38.3296H14.0705V46.2116L3.85712 35.9641L14.0705 25.8893V33.5986L30.8179 33.5986Z" clip-rule="evenodd"/><path fill="#EFA724" fill-rule="evenodd" d="M38.4015 30.8181L36.036 33.1975L33.6705 30.8181V14.0706H25.7886L36.036 3.85715L46.1108 14.0706H38.4015L38.4015 30.8181Z" clip-rule="evenodd"/><path fill="#262577" fill-rule="evenodd" d="M41.182 38.4002L38.8026 36.0346L41.182 33.6691H57.9295V25.7872L68.1428 36.0346L57.9295 46.1094V38.4002L41.182 38.4002Z" clip-rule="evenodd"/><path fill="#9CCD2A" fill-rule="evenodd" d="M33.5972 41.1807L35.9628 38.8012L38.3283 41.1807V57.9282H46.2102L35.9628 68.1416L25.888 57.9282H33.5972L33.5972 41.1807Z" clip-rule="evenodd"/><path fill="#9CCD2A" stroke="#fff" d="M13.4708 13.4723H33.82V33.8217H13.4708V13.4723Z"/><path fill="#932279" stroke="#fff" d="M38.1804 13.4723H58.5296V33.8216H38.1804V13.4723Z"/><path fill="#EFA724" stroke="#fff" d="M38.1805 38.1846H58.5297V58.5339H38.1805V38.1846Z"/><path fill="#262577" stroke="#fff" d="M13.4708 38.1846H33.82V58.5339H13.4708V38.1846Z"/><path stroke="#fff" d="M4.13776 36L18.5268 21.6109L32.9159 36L18.5268 50.3892L4.13776 36Z"/><path stroke="#fff" d="M21.6108 18.5248L35.9999 4.13568L50.389 18.5248L35.9999 32.9139L21.6108 18.5248Z"/><path stroke="#fff" d="M39.0823 35.9964L53.4714 21.6072L67.8605 35.9964L53.4714 50.3855L39.0823 35.9964Z"/><path stroke="#fff" d="M21.6107 53.474L35.9998 39.0848L50.3889 53.474L35.9998 67.8631L21.6107 53.474Z"/></svg>