<svg xmlns="http://www.w3.org/2000/svg" xmlns:xlink="http://www.w3.org/1999/xlink" width="200" height="200" class="icon" p-id="2513" t="1755186680441" version="1.1" viewBox="0 0 1024 1024"><path fill="#060198" d="M203.264 659.456l152.064-152.064 152.064 152.064a215.04 215.04 0 0 1-304.128 0z m304.128-304.128a215.04 215.04 0 0 1 304.128 0l-152.064 152.064-152.064-152.064z" p-id="2514"/><path fill="#00C0FF" d="M203.264 659.456a215.04 215.04 0 0 1 0-304.128L507.392 51.2a215.04 215.04 0 0 1 0 304.128l-304.128 304.128z" p-id="2515"/><path fill="#0368EC" d="M659.456 811.4688l-152.064 152.064a215.04 215.04 0 0 1 0-304.128l152.064-152.064 152.064-152.064a214.9376 214.9376 0 0 1 0 304.128l-152.064 152.064z" p-id="2516"/></svg>